<mxfile host="65bd71144e">
    <diagram id="Q0MRPk7_hbsRZfNSQdq8" name="Schéma UML">
        <mxGraphModel dx="653" dy="404" grid="1" gridSize="10" guides="1" tooltips="1" connect="1" arrows="1" fold="1" page="1" pageScale="1" pageWidth="827" pageHeight="1169" math="0" shadow="0">
            <root>
                <mxCell id="0"/>
                <mxCell id="1" parent="0"/>
                <mxCell id="DP2eurDq-18GRdpjfGao-2" style="edgeStyle=orthogonalEdgeStyle;rounded=0;orthogonalLoop=1;jettySize=auto;html=1;entryX=0.25;entryY=0;entryDx=0;entryDy=0;endArrow=none;endFill=0;" parent="1" source="Xm6W6XK9oYb_QX0b-nRs-1" target="Xm6W6XK9oYb_QX0b-nRs-14" edge="1">
                    <mxGeometry relative="1" as="geometry">
                        <Array as="points">
                            <mxPoint x="285" y="129"/>
                        </Array>
                    </mxGeometry>
                </mxCell>
                <mxCell id="Xm6W6XK9oYb_QX0b-nRs-1" value="Tarif" style="swimlane;fontStyle=0;childLayout=stackLayout;horizontal=1;startSize=26;fillColor=none;horizontalStack=0;resizeParent=1;resizeParentMax=0;resizeLast=0;collapsible=1;marginBottom=0;" parent="1" vertex="1">
                    <mxGeometry x="45" y="90" width="140" height="78" as="geometry"/>
                </mxCell>
                <mxCell id="Xm6W6XK9oYb_QX0b-nRs-2" value="+ code_tarif: int" style="text;strokeColor=none;fillColor=none;align=left;verticalAlign=top;spacingLeft=4;spacingRight=4;overflow=hidden;rotatable=0;points=[[0,0.5],[1,0.5]];portConstraint=eastwest;" parent="Xm6W6XK9oYb_QX0b-nRs-1" vertex="1">
                    <mxGeometry y="26" width="140" height="26" as="geometry"/>
                </mxCell>
                <mxCell id="Xm6W6XK9oYb_QX0b-nRs-3" value="+ tarif: {3,5, CAF}" style="text;strokeColor=none;fillColor=none;align=left;verticalAlign=top;spacingLeft=4;spacingRight=4;overflow=hidden;rotatable=0;points=[[0,0.5],[1,0.5]];portConstraint=eastwest;" parent="Xm6W6XK9oYb_QX0b-nRs-1" vertex="1">
                    <mxGeometry y="52" width="140" height="26" as="geometry"/>
                </mxCell>
                <mxCell id="Xm6W6XK9oYb_QX0b-nRs-4" value="Repas" style="swimlane;fontStyle=0;childLayout=stackLayout;horizontal=1;startSize=26;fillColor=none;horizontalStack=0;resizeParent=1;resizeParentMax=0;resizeLast=0;collapsible=1;marginBottom=0;" parent="1" vertex="1">
                    <mxGeometry x="560" y="250" width="150" height="78" as="geometry"/>
                </mxCell>
                <mxCell id="Xm6W6XK9oYb_QX0b-nRs-5" value="+ code_repas: string" style="text;strokeColor=none;fillColor=none;align=left;verticalAlign=top;spacingLeft=4;spacingRight=4;overflow=hidden;rotatable=0;points=[[0,0.5],[1,0.5]];portConstraint=eastwest;" parent="Xm6W6XK9oYb_QX0b-nRs-4" vertex="1">
                    <mxGeometry y="26" width="150" height="26" as="geometry"/>
                </mxCell>
                <mxCell id="Xm6W6XK9oYb_QX0b-nRs-6" value="+ date_repas: date" style="text;strokeColor=none;fillColor=none;align=left;verticalAlign=top;spacingLeft=4;spacingRight=4;overflow=hidden;rotatable=0;points=[[0,0.5],[1,0.5]];portConstraint=eastwest;" parent="Xm6W6XK9oYb_QX0b-nRs-4" vertex="1">
                    <mxGeometry y="52" width="150" height="26" as="geometry"/>
                </mxCell>
                <mxCell id="Xm6W6XK9oYb_QX0b-nRs-7" value="Représentant" style="swimlane;fontStyle=0;childLayout=stackLayout;horizontal=1;startSize=26;fillColor=none;horizontalStack=0;resizeParent=1;resizeParentMax=0;resizeLast=0;collapsible=1;marginBottom=0;" parent="1" vertex="1">
                    <mxGeometry x="20" y="270" width="190" height="156" as="geometry"/>
                </mxCell>
                <mxCell id="Xm6W6XK9oYb_QX0b-nRs-8" value="+ code_representant: int" style="text;strokeColor=none;fillColor=none;align=left;verticalAlign=top;spacingLeft=4;spacingRight=4;overflow=hidden;rotatable=0;points=[[0,0.5],[1,0.5]];portConstraint=eastwest;" parent="Xm6W6XK9oYb_QX0b-nRs-7" vertex="1">
                    <mxGeometry y="26" width="190" height="26" as="geometry"/>
                </mxCell>
                <mxCell id="Xm6W6XK9oYb_QX0b-nRs-12" value="+ nom_representant: String" style="text;strokeColor=none;fillColor=none;align=left;verticalAlign=top;spacingLeft=4;spacingRight=4;overflow=hidden;rotatable=0;points=[[0,0.5],[1,0.5]];portConstraint=eastwest;" parent="Xm6W6XK9oYb_QX0b-nRs-7" vertex="1">
                    <mxGeometry y="52" width="190" height="26" as="geometry"/>
                </mxCell>
                <mxCell id="DP2eurDq-18GRdpjfGao-1" value="+ prenom_representant: String" style="text;strokeColor=none;fillColor=none;align=left;verticalAlign=top;spacingLeft=4;spacingRight=4;overflow=hidden;rotatable=0;points=[[0,0.5],[1,0.5]];portConstraint=eastwest;" parent="Xm6W6XK9oYb_QX0b-nRs-7" vertex="1">
                    <mxGeometry y="78" width="190" height="26" as="geometry"/>
                </mxCell>
                <mxCell id="Xm6W6XK9oYb_QX0b-nRs-10" value="+ telephone: String" style="text;strokeColor=none;fillColor=none;align=left;verticalAlign=top;spacingLeft=4;spacingRight=4;overflow=hidden;rotatable=0;points=[[0,0.5],[1,0.5]];portConstraint=eastwest;" parent="Xm6W6XK9oYb_QX0b-nRs-7" vertex="1">
                    <mxGeometry y="104" width="190" height="26" as="geometry"/>
                </mxCell>
                <mxCell id="HxqmKh8qBWPXigDvK_aa-1" value="+ email: String" style="text;strokeColor=none;fillColor=none;align=left;verticalAlign=top;spacingLeft=4;spacingRight=4;overflow=hidden;rotatable=0;points=[[0,0.5],[1,0.5]];portConstraint=eastwest;" parent="Xm6W6XK9oYb_QX0b-nRs-7" vertex="1">
                    <mxGeometry y="130" width="190" height="26" as="geometry"/>
                </mxCell>
                <mxCell id="Xm6W6XK9oYb_QX0b-nRs-14" value="Enfant" style="swimlane;fontStyle=0;childLayout=stackLayout;horizontal=1;startSize=26;fillColor=none;horizontalStack=0;resizeParent=1;resizeParentMax=0;resizeLast=0;collapsible=1;marginBottom=0;" parent="1" vertex="1">
                    <mxGeometry x="250" y="483" width="140" height="102" as="geometry"/>
                </mxCell>
                <mxCell id="Xm6W6XK9oYb_QX0b-nRs-15" value="+ code_enfant: int" style="text;strokeColor=none;fillColor=none;align=left;verticalAlign=top;spacingLeft=4;spacingRight=4;overflow=hidden;rotatable=0;points=[[0,0.5],[1,0.5]];portConstraint=eastwest;" parent="Xm6W6XK9oYb_QX0b-nRs-14" vertex="1">
                    <mxGeometry y="26" width="140" height="24" as="geometry"/>
                </mxCell>
                <mxCell id="Xm6W6XK9oYb_QX0b-nRs-16" value="+ nom_enfant: String" style="text;strokeColor=none;fillColor=none;align=left;verticalAlign=top;spacingLeft=4;spacingRight=4;overflow=hidden;rotatable=0;points=[[0,0.5],[1,0.5]];portConstraint=eastwest;" parent="Xm6W6XK9oYb_QX0b-nRs-14" vertex="1">
                    <mxGeometry y="50" width="140" height="26" as="geometry"/>
                </mxCell>
                <mxCell id="Xm6W6XK9oYb_QX0b-nRs-17" value="+ prénom_enfant: String" style="text;strokeColor=none;fillColor=none;align=left;verticalAlign=top;spacingLeft=4;spacingRight=4;overflow=hidden;rotatable=0;points=[[0,0.5],[1,0.5]];portConstraint=eastwest;" parent="Xm6W6XK9oYb_QX0b-nRs-14" vertex="1">
                    <mxGeometry y="76" width="140" height="26" as="geometry"/>
                </mxCell>
                <mxCell id="Xm6W6XK9oYb_QX0b-nRs-18" value="Classe" style="swimlane;fontStyle=0;childLayout=stackLayout;horizontal=1;startSize=26;fillColor=none;horizontalStack=0;resizeParent=1;resizeParentMax=0;resizeLast=0;collapsible=1;marginBottom=0;" parent="1" vertex="1">
                    <mxGeometry x="460" y="496" width="140" height="76" as="geometry"/>
                </mxCell>
                <mxCell id="Xm6W6XK9oYb_QX0b-nRs-19" value="+ code_classe: int" style="text;strokeColor=none;fillColor=none;align=left;verticalAlign=top;spacingLeft=4;spacingRight=4;overflow=hidden;rotatable=0;points=[[0,0.5],[1,0.5]];portConstraint=eastwest;" parent="Xm6W6XK9oYb_QX0b-nRs-18" vertex="1">
                    <mxGeometry y="26" width="140" height="24" as="geometry"/>
                </mxCell>
                <mxCell id="Xm6W6XK9oYb_QX0b-nRs-20" value="+ nom_classe: String" style="text;strokeColor=none;fillColor=none;align=left;verticalAlign=top;spacingLeft=4;spacingRight=4;overflow=hidden;rotatable=0;points=[[0,0.5],[1,0.5]];portConstraint=eastwest;" parent="Xm6W6XK9oYb_QX0b-nRs-18" vertex="1">
                    <mxGeometry y="50" width="140" height="26" as="geometry"/>
                </mxCell>
                <mxCell id="Xm6W6XK9oYb_QX0b-nRs-21" value="Type" style="swimlane;fontStyle=0;childLayout=stackLayout;horizontal=1;startSize=26;fillColor=none;horizontalStack=0;resizeParent=1;resizeParentMax=0;resizeLast=0;collapsible=1;marginBottom=0;" parent="1" vertex="1">
                    <mxGeometry x="670" y="452" width="140" height="160" as="geometry"/>
                </mxCell>
                <mxCell id="Xm6W6XK9oYb_QX0b-nRs-22" value="+ code_type: int" style="text;strokeColor=none;fillColor=none;align=left;verticalAlign=top;spacingLeft=4;spacingRight=4;overflow=hidden;rotatable=0;points=[[0,0.5],[1,0.5]];portConstraint=eastwest;" parent="Xm6W6XK9oYb_QX0b-nRs-21" vertex="1">
                    <mxGeometry y="26" width="140" height="24" as="geometry"/>
                </mxCell>
                <mxCell id="Xm6W6XK9oYb_QX0b-nRs-23" value="+ type_classe: {&#10;maternelle&#10;primaire}" style="text;strokeColor=none;fillColor=none;align=left;verticalAlign=top;spacingLeft=4;spacingRight=4;overflow=hidden;rotatable=0;points=[[0,0.5],[1,0.5]];portConstraint=eastwest;" parent="Xm6W6XK9oYb_QX0b-nRs-21" vertex="1">
                    <mxGeometry y="50" width="140" height="60" as="geometry"/>
                </mxCell>
                <mxCell id="cTMAeSYHrxfc-wR-0xFB-5" value="+ niveau_classe: {&#10;CP, CE1, CE2, CM1,&#10;CM2}" style="text;strokeColor=none;fillColor=none;align=left;verticalAlign=top;spacingLeft=4;spacingRight=4;overflow=hidden;rotatable=0;points=[[0,0.5],[1,0.5]];portConstraint=eastwest;" parent="Xm6W6XK9oYb_QX0b-nRs-21" vertex="1">
                    <mxGeometry y="110" width="140" height="50" as="geometry"/>
                </mxCell>
                <mxCell id="Xm6W6XK9oYb_QX0b-nRs-24" style="edgeStyle=orthogonalEdgeStyle;rounded=0;orthogonalLoop=1;jettySize=auto;html=1;exitX=1;exitY=0.5;exitDx=0;exitDy=0;entryX=0;entryY=0.5;entryDx=0;entryDy=0;startArrow=none;startFill=0;endArrow=none;endFill=0;" parent="1" source="Xm6W6XK9oYb_QX0b-nRs-19" target="Xm6W6XK9oYb_QX0b-nRs-22" edge="1">
                    <mxGeometry relative="1" as="geometry"/>
                </mxCell>
                <mxCell id="Xm6W6XK9oYb_QX0b-nRs-25" style="edgeStyle=orthogonalEdgeStyle;rounded=0;orthogonalLoop=1;jettySize=auto;html=1;exitX=0;exitY=0.5;exitDx=0;exitDy=0;entryX=1;entryY=0.5;entryDx=0;entryDy=0;startArrow=none;startFill=0;endArrow=none;endFill=0;" parent="1" source="Xm6W6XK9oYb_QX0b-nRs-19" target="Xm6W6XK9oYb_QX0b-nRs-14" edge="1">
                    <mxGeometry relative="1" as="geometry"/>
                </mxCell>
                <mxCell id="Xm6W6XK9oYb_QX0b-nRs-26" style="edgeStyle=orthogonalEdgeStyle;rounded=0;orthogonalLoop=1;jettySize=auto;html=1;exitX=0;exitY=0.5;exitDx=0;exitDy=0;entryX=1;entryY=0.5;entryDx=0;entryDy=0;startArrow=none;startFill=0;endArrow=none;endFill=0;" parent="1" source="Xm6W6XK9oYb_QX0b-nRs-16" target="Xm6W6XK9oYb_QX0b-nRs-7" edge="1">
                    <mxGeometry relative="1" as="geometry"/>
                </mxCell>
                <mxCell id="Xm6W6XK9oYb_QX0b-nRs-29" style="edgeStyle=orthogonalEdgeStyle;rounded=0;orthogonalLoop=1;jettySize=auto;html=1;exitX=0;exitY=0.5;exitDx=0;exitDy=0;entryX=0.75;entryY=0;entryDx=0;entryDy=0;endArrow=none;endFill=0;" parent="1" source="Xm6W6XK9oYb_QX0b-nRs-6" target="Xm6W6XK9oYb_QX0b-nRs-14" edge="1">
                    <mxGeometry relative="1" as="geometry"/>
                </mxCell>
                <mxCell id="Xm6W6XK9oYb_QX0b-nRs-30" value="*" style="text;html=1;align=center;verticalAlign=middle;resizable=0;points=[];autosize=1;strokeColor=none;fillColor=none;" parent="1" vertex="1">
                    <mxGeometry x="280" y="463" width="20" height="20" as="geometry"/>
                </mxCell>
                <mxCell id="Xm6W6XK9oYb_QX0b-nRs-31" value="1" style="text;html=1;align=center;verticalAlign=middle;resizable=0;points=[];autosize=1;strokeColor=none;fillColor=none;" parent="1" vertex="1">
                    <mxGeometry x="190" y="110" width="20" height="20" as="geometry"/>
                </mxCell>
                <mxCell id="Xm6W6XK9oYb_QX0b-nRs-32" value="1" style="text;html=1;align=center;verticalAlign=middle;resizable=0;points=[];autosize=1;strokeColor=none;fillColor=none;" parent="1" vertex="1">
                    <mxGeometry x="380" y="463" width="20" height="20" as="geometry"/>
                </mxCell>
                <mxCell id="Xm6W6XK9oYb_QX0b-nRs-33" value="*" style="text;html=1;align=center;verticalAlign=middle;resizable=0;points=[];autosize=1;strokeColor=none;fillColor=none;" parent="1" vertex="1">
                    <mxGeometry x="540" y="318" width="20" height="20" as="geometry"/>
                </mxCell>
                <mxCell id="Xm6W6XK9oYb_QX0b-nRs-34" value="*" style="text;html=1;align=center;verticalAlign=middle;resizable=0;points=[];autosize=1;strokeColor=none;fillColor=none;" parent="1" vertex="1">
                    <mxGeometry x="230" y="524" width="20" height="20" as="geometry"/>
                </mxCell>
                <mxCell id="Xm6W6XK9oYb_QX0b-nRs-35" value="1" style="text;html=1;align=center;verticalAlign=middle;resizable=0;points=[];autosize=1;strokeColor=none;fillColor=none;" parent="1" vertex="1">
                    <mxGeometry x="210" y="328" width="20" height="20" as="geometry"/>
                </mxCell>
                <mxCell id="Xm6W6XK9oYb_QX0b-nRs-36" value="*" style="text;html=1;align=center;verticalAlign=middle;resizable=0;points=[];autosize=1;strokeColor=none;fillColor=none;" parent="1" vertex="1">
                    <mxGeometry x="394" y="524" width="20" height="20" as="geometry"/>
                </mxCell>
                <mxCell id="Xm6W6XK9oYb_QX0b-nRs-37" value="1" style="text;html=1;align=center;verticalAlign=middle;resizable=0;points=[];autosize=1;strokeColor=none;fillColor=none;" parent="1" vertex="1">
                    <mxGeometry x="440" y="520" width="20" height="20" as="geometry"/>
                </mxCell>
                <mxCell id="Xm6W6XK9oYb_QX0b-nRs-38" value="*" style="text;html=1;align=center;verticalAlign=middle;resizable=0;points=[];autosize=1;strokeColor=none;fillColor=none;" parent="1" vertex="1">
                    <mxGeometry x="600" y="530" width="20" height="20" as="geometry"/>
                </mxCell>
                <mxCell id="Xm6W6XK9oYb_QX0b-nRs-39" value="1" style="text;html=1;align=center;verticalAlign=middle;resizable=0;points=[];autosize=1;strokeColor=none;fillColor=none;" parent="1" vertex="1">
                    <mxGeometry x="650" y="460" width="20" height="20" as="geometry"/>
                </mxCell>
                <mxCell id="Xm6W6XK9oYb_QX0b-nRs-40" value="Appartient" style="text;html=1;align=center;verticalAlign=middle;resizable=0;points=[];autosize=1;strokeColor=none;fillColor=none;" parent="1" vertex="1">
                    <mxGeometry x="200" y="432" width="70" height="20" as="geometry"/>
                </mxCell>
                <mxCell id="Xm6W6XK9oYb_QX0b-nRs-41" value="Paye" style="text;html=1;align=center;verticalAlign=middle;resizable=0;points=[];autosize=1;strokeColor=none;fillColor=none;" parent="1" vertex="1">
                    <mxGeometry x="270" y="300" width="40" height="20" as="geometry"/>
                </mxCell>
                <mxCell id="Xm6W6XK9oYb_QX0b-nRs-42" value="Mange" style="text;html=1;align=center;verticalAlign=middle;resizable=0;points=[];autosize=1;strokeColor=none;fillColor=none;" parent="1" vertex="1">
                    <mxGeometry x="445" y="320" width="50" height="20" as="geometry"/>
                </mxCell>
                <mxCell id="Xm6W6XK9oYb_QX0b-nRs-43" value="Est dans" style="text;html=1;align=center;verticalAlign=middle;resizable=0;points=[];autosize=1;strokeColor=none;fillColor=none;" parent="1" vertex="1">
                    <mxGeometry x="390" y="496" width="60" height="20" as="geometry"/>
                </mxCell>
                <mxCell id="Xm6W6XK9oYb_QX0b-nRs-44" value="De type" style="text;html=1;align=center;verticalAlign=middle;resizable=0;points=[];autosize=1;strokeColor=none;fillColor=none;" parent="1" vertex="1">
                    <mxGeometry x="590" y="460" width="60" height="20" as="geometry"/>
                </mxCell>
                <mxCell id="ajB6_8e_put2SL1iQQkQ-7" style="edgeStyle=orthogonalEdgeStyle;rounded=0;orthogonalLoop=1;jettySize=auto;html=1;exitX=0.5;exitY=0;exitDx=0;exitDy=0;entryX=0.495;entryY=1;entryDx=0;entryDy=0;entryPerimeter=0;endArrow=none;endFill=0;startArrow=classic;startFill=1;" parent="1" source="Xm6W6XK9oYb_QX0b-nRs-45" target="HxqmKh8qBWPXigDvK_aa-1" edge="1">
                    <mxGeometry relative="1" as="geometry"/>
                </mxCell>
                <mxCell id="Xm6W6XK9oYb_QX0b-nRs-45" value="Compte" style="swimlane;fontStyle=0;childLayout=stackLayout;horizontal=1;startSize=26;fillColor=none;horizontalStack=0;resizeParent=1;resizeParentMax=0;resizeLast=0;collapsible=1;marginBottom=0;" parent="1" vertex="1">
                    <mxGeometry x="40" y="756" width="150" height="104" as="geometry"/>
                </mxCell>
                <mxCell id="Xm6W6XK9oYb_QX0b-nRs-46" value="+ identifiant: string" style="text;strokeColor=none;fillColor=none;align=left;verticalAlign=top;spacingLeft=4;spacingRight=4;overflow=hidden;rotatable=0;points=[[0,0.5],[1,0.5]];portConstraint=eastwest;" parent="Xm6W6XK9oYb_QX0b-nRs-45" vertex="1">
                    <mxGeometry y="26" width="150" height="26" as="geometry"/>
                </mxCell>
                <mxCell id="Xm6W6XK9oYb_QX0b-nRs-47" value="+ mot_de_passe: SHA256" style="text;strokeColor=none;fillColor=none;align=left;verticalAlign=top;spacingLeft=4;spacingRight=4;overflow=hidden;rotatable=0;points=[[0,0.5],[1,0.5]];portConstraint=eastwest;" parent="Xm6W6XK9oYb_QX0b-nRs-45" vertex="1">
                    <mxGeometry y="52" width="150" height="26" as="geometry"/>
                </mxCell>
                <mxCell id="Xm6W6XK9oYb_QX0b-nRs-48" value="+ type : string" style="text;strokeColor=none;fillColor=none;align=left;verticalAlign=top;spacingLeft=4;spacingRight=4;overflow=hidden;rotatable=0;points=[[0,0.5],[1,0.5]];portConstraint=eastwest;" parent="Xm6W6XK9oYb_QX0b-nRs-45" vertex="1">
                    <mxGeometry y="78" width="150" height="26" as="geometry"/>
                </mxCell>
                <mxCell id="Xm6W6XK9oYb_QX0b-nRs-50" value="1" style="text;html=1;align=center;verticalAlign=middle;resizable=0;points=[];autosize=1;strokeColor=none;fillColor=none;" parent="1" vertex="1">
                    <mxGeometry x="110" y="432" width="20" height="20" as="geometry"/>
                </mxCell>
                <mxCell id="ajB6_8e_put2SL1iQQkQ-4" style="edgeStyle=orthogonalEdgeStyle;rounded=0;orthogonalLoop=1;jettySize=auto;html=1;entryX=1;entryY=0.5;entryDx=0;entryDy=0;" parent="1" source="DP2eurDq-18GRdpjfGao-3" target="Xm6W6XK9oYb_QX0b-nRs-46" edge="1">
                    <mxGeometry relative="1" as="geometry"/>
                </mxCell>
                <mxCell id="ajB6_8e_put2SL1iQQkQ-6" style="edgeStyle=orthogonalEdgeStyle;rounded=0;orthogonalLoop=1;jettySize=auto;html=1;exitX=0.5;exitY=0;exitDx=0;exitDy=0;entryX=0.464;entryY=1;entryDx=0;entryDy=0;entryPerimeter=0;endArrow=none;endFill=0;" parent="1" source="DP2eurDq-18GRdpjfGao-3" target="Xm6W6XK9oYb_QX0b-nRs-20" edge="1">
                    <mxGeometry relative="1" as="geometry">
                        <Array as="points">
                            <mxPoint x="560" y="690"/>
                            <mxPoint x="560" y="572"/>
                        </Array>
                    </mxGeometry>
                </mxCell>
                <mxCell id="DP2eurDq-18GRdpjfGao-3" value="Enseignant" style="swimlane;fontStyle=0;childLayout=stackLayout;horizontal=1;startSize=26;fillColor=none;horizontalStack=0;resizeParent=1;resizeParentMax=0;resizeLast=0;collapsible=1;marginBottom=0;" parent="1" vertex="1">
                    <mxGeometry x="500" y="756" width="170" height="104" as="geometry"/>
                </mxCell>
                <mxCell id="DP2eurDq-18GRdpjfGao-4" value="+ code_enseignant: int" style="text;strokeColor=none;fillColor=none;align=left;verticalAlign=top;spacingLeft=4;spacingRight=4;overflow=hidden;rotatable=0;points=[[0,0.5],[1,0.5]];portConstraint=eastwest;" parent="DP2eurDq-18GRdpjfGao-3" vertex="1">
                    <mxGeometry y="26" width="170" height="26" as="geometry"/>
                </mxCell>
                <mxCell id="DP2eurDq-18GRdpjfGao-5" value="+ nom_enseignant: String" style="text;strokeColor=none;fillColor=none;align=left;verticalAlign=top;spacingLeft=4;spacingRight=4;overflow=hidden;rotatable=0;points=[[0,0.5],[1,0.5]];portConstraint=eastwest;" parent="DP2eurDq-18GRdpjfGao-3" vertex="1">
                    <mxGeometry y="52" width="170" height="26" as="geometry"/>
                </mxCell>
                <mxCell id="DP2eurDq-18GRdpjfGao-6" value="+ prenom_enseignant: String" style="text;strokeColor=none;fillColor=none;align=left;verticalAlign=top;spacingLeft=4;spacingRight=4;overflow=hidden;rotatable=0;points=[[0,0.5],[1,0.5]];portConstraint=eastwest;" parent="DP2eurDq-18GRdpjfGao-3" vertex="1">
                    <mxGeometry y="78" width="170" height="26" as="geometry"/>
                </mxCell>
                <mxCell id="DP2eurDq-18GRdpjfGao-9" value="*" style="text;html=1;align=center;verticalAlign=middle;resizable=0;points=[];autosize=1;strokeColor=none;fillColor=none;" parent="1" vertex="1">
                    <mxGeometry x="570" y="736" width="20" height="20" as="geometry"/>
                </mxCell>
                <mxCell id="DP2eurDq-18GRdpjfGao-10" value="*" style="text;html=1;align=center;verticalAlign=middle;resizable=0;points=[];autosize=1;strokeColor=none;fillColor=none;" parent="1" vertex="1">
                    <mxGeometry x="560" y="572" width="20" height="20" as="geometry"/>
                </mxCell>
                <mxCell id="DP2eurDq-18GRdpjfGao-11" value="Enseigne" style="text;html=1;align=center;verticalAlign=middle;resizable=0;points=[];autosize=1;strokeColor=none;fillColor=none;" parent="1" vertex="1">
                    <mxGeometry x="520" y="620" width="70" height="20" as="geometry"/>
                </mxCell>
                <mxCell id="ajB6_8e_put2SL1iQQkQ-9" style="edgeStyle=orthogonalEdgeStyle;rounded=0;orthogonalLoop=1;jettySize=auto;html=1;entryX=0.5;entryY=0;entryDx=0;entryDy=0;endArrow=none;endFill=0;" parent="1" source="ajB6_8e_put2SL1iQQkQ-1" target="Xm6W6XK9oYb_QX0b-nRs-14" edge="1">
                    <mxGeometry relative="1" as="geometry">
                        <Array as="points">
                            <mxPoint x="390" y="280"/>
                            <mxPoint x="320" y="280"/>
                        </Array>
                    </mxGeometry>
                </mxCell>
                <mxCell id="ajB6_8e_put2SL1iQQkQ-1" value="Formule" style="swimlane;fontStyle=0;childLayout=stackLayout;horizontal=1;startSize=26;horizontalStack=0;resizeParent=1;resizeParentMax=0;resizeLast=0;collapsible=1;marginBottom=0;" parent="1" vertex="1">
                    <mxGeometry x="320" y="60" width="140" height="150" as="geometry"/>
                </mxCell>
                <mxCell id="ajB6_8e_put2SL1iQQkQ-2" value="+ code_formule: int" style="text;strokeColor=none;fillColor=none;align=left;verticalAlign=top;spacingLeft=4;spacingRight=4;overflow=hidden;rotatable=0;points=[[0,0.5],[1,0.5]];portConstraint=eastwest;" parent="ajB6_8e_put2SL1iQQkQ-1" vertex="1">
                    <mxGeometry y="26" width="140" height="26" as="geometry"/>
                </mxCell>
                <mxCell id="ajB6_8e_put2SL1iQQkQ-3" value="+ nom_formule: {&#10;1J&#10;2J&#10;3J&#10;4J&#10;occasionel}" style="text;strokeColor=none;fillColor=none;align=left;verticalAlign=top;spacingLeft=4;spacingRight=4;overflow=hidden;rotatable=0;points=[[0,0.5],[1,0.5]];portConstraint=eastwest;" parent="ajB6_8e_put2SL1iQQkQ-1" vertex="1">
                    <mxGeometry y="52" width="140" height="98" as="geometry"/>
                </mxCell>
                <mxCell id="ajB6_8e_put2SL1iQQkQ-10" value="1" style="text;html=1;align=center;verticalAlign=middle;resizable=0;points=[];autosize=1;strokeColor=none;fillColor=none;" parent="1" vertex="1">
                    <mxGeometry x="390" y="210" width="20" height="20" as="geometry"/>
                </mxCell>
                <mxCell id="ajB6_8e_put2SL1iQQkQ-11" value="*" style="text;html=1;align=center;verticalAlign=middle;resizable=0;points=[];autosize=1;strokeColor=none;fillColor=none;" parent="1" vertex="1">
                    <mxGeometry x="320" y="460" width="20" height="20" as="geometry"/>
                </mxCell>
                <mxCell id="ajB6_8e_put2SL1iQQkQ-12" value="1" style="text;html=1;align=center;verticalAlign=middle;resizable=0;points=[];autosize=1;strokeColor=none;fillColor=none;" parent="1" vertex="1">
                    <mxGeometry x="475" y="784" width="20" height="20" as="geometry"/>
                </mxCell>
                <mxCell id="ajB6_8e_put2SL1iQQkQ-13" value="Choisi" style="text;html=1;align=center;verticalAlign=middle;resizable=0;points=[];autosize=1;strokeColor=none;fillColor=none;" parent="1" vertex="1">
                    <mxGeometry x="300" y="370" width="50" height="20" as="geometry"/>
                </mxCell>
                <mxCell id="cTMAeSYHrxfc-wR-0xFB-1" value="Jour" style="swimlane;fontStyle=0;childLayout=stackLayout;horizontal=1;startSize=26;fillColor=none;horizontalStack=0;resizeParent=1;resizeParentMax=0;resizeLast=0;collapsible=1;marginBottom=0;" parent="1" vertex="1">
                    <mxGeometry x="140" y="640" width="170" height="100" as="geometry"/>
                </mxCell>
                <mxCell id="cTMAeSYHrxfc-wR-0xFB-2" value="+ code_jour: int" style="text;strokeColor=none;fillColor=none;align=left;verticalAlign=top;spacingLeft=4;spacingRight=4;overflow=hidden;rotatable=0;points=[[0,0.5],[1,0.5]];portConstraint=eastwest;" parent="cTMAeSYHrxfc-wR-0xFB-1" vertex="1">
                    <mxGeometry y="26" width="170" height="26" as="geometry"/>
                </mxCell>
                <mxCell id="cTMAeSYHrxfc-wR-0xFB-3" value="+ nom_jour: {&#10;Lundi, Mardi, &#10;Jeudi, Vendredi}" style="text;strokeColor=none;fillColor=none;align=left;verticalAlign=top;spacingLeft=4;spacingRight=4;overflow=hidden;rotatable=0;points=[[0,0.5],[1,0.5]];portConstraint=eastwest;" parent="cTMAeSYHrxfc-wR-0xFB-1" vertex="1">
                    <mxGeometry y="52" width="170" height="48" as="geometry"/>
                </mxCell>
                <mxCell id="cTMAeSYHrxfc-wR-0xFB-7" value="Mange" style="text;html=1;align=center;verticalAlign=middle;resizable=0;points=[];autosize=1;strokeColor=none;fillColor=none;" parent="1" vertex="1">
                    <mxGeometry x="230" y="600" width="50" height="20" as="geometry"/>
                </mxCell>
                <mxCell id="cTMAeSYHrxfc-wR-0xFB-9" style="edgeStyle=orthogonalEdgeStyle;rounded=0;orthogonalLoop=1;jettySize=auto;html=1;exitX=0;exitY=0.5;exitDx=0;exitDy=0;entryX=0.5;entryY=0;entryDx=0;entryDy=0;endArrow=none;endFill=0;" parent="1" source="Xm6W6XK9oYb_QX0b-nRs-17" target="cTMAeSYHrxfc-wR-0xFB-1" edge="1">
                    <mxGeometry relative="1" as="geometry"/>
                </mxCell>
                <mxCell id="cTMAeSYHrxfc-wR-0xFB-10" value="*" style="text;html=1;align=center;verticalAlign=middle;resizable=0;points=[];autosize=1;strokeColor=none;fillColor=none;" parent="1" vertex="1">
                    <mxGeometry x="230" y="570" width="20" height="20" as="geometry"/>
                </mxCell>
                <mxCell id="cTMAeSYHrxfc-wR-0xFB-11" value="*" style="text;html=1;align=center;verticalAlign=middle;resizable=0;points=[];autosize=1;strokeColor=none;fillColor=none;" parent="1" vertex="1">
                    <mxGeometry x="200" y="620" width="20" height="20" as="geometry"/>
                </mxCell>
                <mxCell id="5" style="edgeStyle=none;html=1;entryX=1;entryY=0.5;entryDx=0;entryDy=0;endArrow=none;endFill=0;rounded=0;" parent="1" source="2" target="Xm6W6XK9oYb_QX0b-nRs-17" edge="1">
                    <mxGeometry relative="1" as="geometry">
                        <Array as="points">
                            <mxPoint x="415" y="572"/>
                        </Array>
                    </mxGeometry>
                </mxCell>
                <mxCell id="2" value="Allergie" style="swimlane;fontStyle=0;childLayout=stackLayout;horizontal=1;startSize=26;fillColor=none;horizontalStack=0;resizeParent=1;resizeParentMax=0;resizeLast=0;collapsible=1;marginBottom=0;" parent="1" vertex="1">
                    <mxGeometry x="330" y="640" width="170" height="80" as="geometry"/>
                </mxCell>
                <mxCell id="3" value="+ code_allergie: int" style="text;strokeColor=none;fillColor=none;align=left;verticalAlign=top;spacingLeft=4;spacingRight=4;overflow=hidden;rotatable=0;points=[[0,0.5],[1,0.5]];portConstraint=eastwest;" parent="2" vertex="1">
                    <mxGeometry y="26" width="170" height="26" as="geometry"/>
                </mxCell>
                <mxCell id="4" value="+ nom_allergie: String" style="text;strokeColor=none;fillColor=none;align=left;verticalAlign=top;spacingLeft=4;spacingRight=4;overflow=hidden;rotatable=0;points=[[0,0.5],[1,0.5]];portConstraint=eastwest;" parent="2" vertex="1">
                    <mxGeometry y="52" width="170" height="28" as="geometry"/>
                </mxCell>
                <mxCell id="6" value="*" style="text;html=1;align=center;verticalAlign=middle;resizable=0;points=[];autosize=1;strokeColor=none;fillColor=none;" parent="1" vertex="1">
                    <mxGeometry x="390" y="570" width="20" height="20" as="geometry"/>
                </mxCell>
                <mxCell id="7" value="*" style="text;html=1;align=center;verticalAlign=middle;resizable=0;points=[];autosize=1;strokeColor=none;fillColor=none;" parent="1" vertex="1">
                    <mxGeometry x="420" y="620" width="20" height="20" as="geometry"/>
                </mxCell>
                <mxCell id="8" value="EstAllergiqueA" style="text;html=1;align=center;verticalAlign=middle;resizable=0;points=[];autosize=1;strokeColor=none;fillColor=none;" parent="1" vertex="1">
                    <mxGeometry x="395" y="590" width="90" height="20" as="geometry"/>
                </mxCell>
                <mxCell id="9" value="Conge" style="swimlane;fontStyle=0;childLayout=stackLayout;horizontal=1;startSize=26;fillColor=none;horizontalStack=0;resizeParent=1;resizeParentMax=0;resizeLast=0;collapsible=1;marginBottom=0;" vertex="1" parent="1">
                    <mxGeometry x="530" y="90" width="140" height="52" as="geometry"/>
                </mxCell>
                <mxCell id="10" value="+ date_conge: String" style="text;strokeColor=none;fillColor=none;align=left;verticalAlign=top;spacingLeft=4;spacingRight=4;overflow=hidden;rotatable=0;points=[[0,0.5],[1,0.5]];portConstraint=eastwest;" vertex="1" parent="9">
                    <mxGeometry y="26" width="140" height="26" as="geometry"/>
                </mxCell>
            </root>
        </mxGraphModel>
    </diagram>
</mxfile>